<svg width="60" height="60" viewBox="0 0 60 60" fill="none" xmlns="http://www.w3.org/2000/svg">
<path fill-rule="evenodd" clip-rule="evenodd" d="M37.4292 7.75C38.1196 7.75 38.6792 8.30964 38.6792 9V12.9296C38.6792 13.6199 38.1196 14.1796 37.4292 14.1796C36.7388 14.1796 36.1792 13.6199 36.1792 12.9296V9C36.1792 8.30964 36.7388 7.75 37.4292 7.75ZM25.0622 13.6394C24.5089 13.2265 23.7257 13.3402 23.3127 13.8934C22.8998 14.4466 23.0135 15.2299 23.5667 15.6428L26.9418 18.1621C27.4951 18.575 28.2783 18.4613 28.6913 17.9081C29.1042 17.3549 28.9905 16.5716 28.4373 16.1587L25.0622 13.6394ZM40.129 31.7391C40.129 30.96 40.5982 30.2727 41.2313 29.8186C42.902 28.6206 43.9862 26.6904 43.9862 24.5133C43.9862 20.8785 40.964 17.9319 37.236 17.9319C33.508 17.9319 30.4858 20.8785 30.4858 24.5133C30.4858 26.6905 31.5701 28.6207 33.2408 29.8187C33.874 30.2728 34.3432 30.9601 34.3432 31.7392V31.9154C34.3432 33.02 35.2386 33.9154 36.3432 33.9154H38.129C39.2336 33.9154 40.129 33.02 40.129 31.9154V31.7391ZM20.5 41C24.0899 41 27 38.0899 27 34.5C27 30.9101 24.0899 28 20.5 28C16.9101 28 14 30.9101 14 34.5C14 38.0899 16.9101 41 20.5 41ZM11.3146 46.2216L16.6648 44.6364C19.1678 43.8947 21.8322 43.8947 24.3352 44.6364L29.6854 46.2216C32.2445 46.9798 34 49.331 34 52H7C7 49.331 8.75553 46.9798 11.3146 46.2216ZM50.0853 13.6394C50.6385 13.2265 51.4218 13.3402 51.8347 13.8934C52.2477 14.4466 52.1339 15.2299 51.5807 15.6428L48.2056 18.1621C47.6524 18.575 46.8692 18.4613 46.4562 17.9081C46.0433 17.3549 46.157 16.5716 46.7102 16.1587L50.0853 13.6394Z" fill="white"/>
</svg>
