<svg width="60" height="60" viewBox="0 0 60 60" fill="none" xmlns="http://www.w3.org/2000/svg">
<path fill-rule="evenodd" clip-rule="evenodd" d="M49.4857 8H10.5143C9.12568 8 8 9.12568 8 10.5143V35.6571V38.1714V49.4857C8 50.8743 9.12568 52 10.5143 52H49.4857C50.8743 52 52 50.8743 52 49.4857V38.1714V35.6571H49.4857L10.5143 35.6571H52V10.5143C52 9.12568 50.8743 8 49.4857 8ZM30.575 17.7448C32.6046 15.9589 36.3192 14.318 40.7564 14.9519L41.8357 15.1061V16.1964V28.8094V29.9574L40.6924 30.0614C39.1526 30.2014 36.8315 30.5591 34.8833 31.1628C33.9037 31.4663 33.0876 31.8113 32.5218 32.1793C31.9381 32.5589 31.8346 32.8196 31.8206 32.8958C31.746 33.4376 31.3211 33.8871 30.7527 33.9683C30.0654 34.0665 29.4286 33.5889 29.3304 32.9016C29.3207 32.8335 29.2276 32.5691 28.6282 32.1793C28.0624 31.8113 27.2463 31.4663 26.2667 31.1628C24.3185 30.5591 21.9975 30.2014 20.4576 30.0614L19.3143 29.9574V28.8094V16.1964V15.1061L20.3936 14.9519C24.8309 14.318 28.5454 15.9589 30.575 17.7448ZM29.318 20.0229C28.1744 18.7861 25.4156 17.1739 21.8286 17.3389V27.6833C23.3743 27.8807 25.2978 28.2304 27.0109 28.7612C27.8164 29.0108 28.6141 29.312 29.318 29.6771V20.0229ZM39.3215 27.6833V17.3389C35.7346 17.1739 32.9759 18.7859 31.8323 20.0227V29.677C32.536 29.312 33.3337 29.0107 34.1392 28.7612C35.8522 28.2304 37.7758 27.8807 39.3215 27.6833ZM10.5143 38.1714L10.5143 49.4857L49.4857 49.4857V38.1714L10.5143 38.1714ZM16.8 44.8759C16.1057 44.8759 15.5429 44.313 15.5429 43.6187C15.5429 42.9244 16.1057 42.3616 16.8 42.3616H21.5143V41.4475C21.5143 40.7532 22.0771 40.1903 22.7714 40.1903C23.4657 40.1903 24.0286 40.7532 24.0286 41.4475V43.6091L24.0286 43.6187L24.0286 43.6284V45.7904C24.0286 46.4847 23.4657 47.0475 22.7714 47.0475C22.0771 47.0475 21.5143 46.4847 21.5143 45.7904V44.8759H16.8ZM28.5426 44.8759C27.8483 44.8759 27.2855 44.313 27.2855 43.6187C27.2855 42.9244 27.8483 42.3616 28.5426 42.3616H43.1999C43.8942 42.3616 44.457 42.9244 44.457 43.6187C44.457 44.313 43.8942 44.8759 43.1999 44.8759H28.5426Z" fill="white"/>
</svg>
