<svg width="60" height="60" viewBox="0 0 60 60" fill="none" xmlns="http://www.w3.org/2000/svg">
<path d="M27.5684 38.2761V38.5625C27.5684 40.2791 28.27 41.9211 29.5105 43.1077L38.807 52L48.1035 43.1077C49.344 41.9211 50.0456 40.2791 50.0456 38.5625V38.2761C50.0456 36.7424 49.4188 35.2754 48.3105 34.2153C46.138 32.1372 42.7147 32.1372 40.5421 34.2153L38.807 35.875L37.0719 34.2153C34.8993 32.1372 31.476 32.1372 29.3035 34.2153C28.1952 35.2754 27.5684 36.7424 27.5684 38.2761Z" fill="white"/>
<path d="M41.2504 18.2841L31.8535 9V18.2841H41.2504Z" fill="white"/>
<path fill-rule="evenodd" clip-rule="evenodd" d="M29.64 9H11C9.89543 9 9 9.89543 9 11V45.1136C9 46.2182 9.89543 47.1136 11 47.1136H26.8315H29.2552L27.3878 45.3274C25.5415 43.5614 24.4973 41.1176 24.4973 38.5627V38.2763C24.4973 35.9044 25.4667 33.6355 27.1808 31.996C30.4142 28.9032 35.4389 28.7866 38.8073 31.6463C39.5529 31.0134 40.3796 30.5262 41.25 30.1849V29.5227V20.3028H29.64V9ZM40.3088 17.3542L32.5885 9.72657V17.3542H40.3088Z" fill="white"/>
</svg>
